<?xml version="1.0" encoding="UTF-8" standalone="no"?>
<!DOCTYPE svg PUBLIC "-//W3C//DTD SVG 1.1//EN" "http://www.w3.org/Graphics/SVG/1.1/DTD/svg11.dtd">
<svg width="100%" height="100%" viewBox="0 0 400 59" version="1.1" xmlns="http://www.w3.org/2000/svg" xmlns:xlink="http://www.w3.org/1999/xlink" xml:space="preserve" xmlns:serif="http://www.serif.com/" style="fill-rule:evenodd;clip-rule:evenodd;stroke-linejoin:round;stroke-miterlimit:2;">
    <g transform="matrix(1,0,0,1,0,-55.6877)">
        <g transform="matrix(1.2001,0,0,1.2001,-1.70544e-14,-12.9954)">
            <g id="futbol-sharp-regular.svg" transform="matrix(0.0905178,0,0,0.0905178,279.736,82.6834)">
                <g transform="matrix(1,0,0,1,-256,-256)">
                    <path d="M412.4,118.9L377.7,216.5L463.1,275C460.2,306.7 450.2,336.4 434.7,362.4L331.2,359.6L301.9,459C287.1,462.3 271.7,464.1 256,464.1C240.3,464.1 224.8,462.3 210.1,459L180.8,359.6L77.2,362.4C61.7,336.4 51.7,306.7 48.8,275L134.2,216.5L99.6,118.9C119.9,95.8 145.2,77.2 173.9,64.8L256,128L338.1,64.8C366.8,77.1 392.1,95.7 412.4,118.9ZM256,512C396.437,512 512,396.437 512,256C512,115.563 396.437,0 256,0C115.563,0 -0,115.563 0,256C0,396.437 115.563,512 256,512ZM256,176L179.9,231.3L209,320.7L303,320.7L332.1,231.3L256,176Z" style="fill-rule:nonzero;"/>
                </g>
            </g>
            <g transform="matrix(0.697069,0,0,0.697069,-73.9389,23.848)">
                <path d="M151.6,61.022L135.252,61.022L135.252,105.354L122.12,105.354L122.12,61.022L106.071,61.022L106.071,50.884L151.6,50.884L151.6,61.022Z" style="fill-rule:nonzero;"/>
                <path d="M174.907,93.981C174.907,92.909 174.346,92.048 173.223,91.4C172.101,90.751 169.969,90.078 166.826,89.38C163.684,88.681 161.09,87.765 159.045,86.63C157,85.495 155.441,84.117 154.368,82.496C153.296,80.875 152.76,79.017 152.76,76.922C152.76,73.206 154.294,70.144 157.361,67.737C160.429,65.331 164.444,64.127 169.408,64.127C174.745,64.127 179.035,65.337 182.277,67.756C185.519,70.175 187.14,73.355 187.14,77.296L174.495,77.296C174.495,74.054 172.787,72.433 169.37,72.433C168.048,72.433 166.938,72.8 166.041,73.536C165.143,74.272 164.694,75.188 164.694,76.286C164.694,77.408 165.242,78.318 166.34,79.017C167.437,79.715 169.189,80.289 171.596,80.738C174.003,81.187 176.116,81.723 177.937,82.346C184.023,84.441 187.065,88.195 187.065,93.607C187.065,97.298 185.426,100.303 182.146,102.623C178.866,104.942 174.62,106.102 169.408,106.102C165.941,106.102 162.848,105.479 160.13,104.232C157.411,102.985 155.291,101.289 153.77,99.144C152.248,96.999 151.488,94.742 151.488,92.372L163.272,92.372C163.322,94.243 163.946,95.608 165.143,96.469C166.34,97.329 167.874,97.76 169.744,97.76C171.465,97.76 172.756,97.41 173.616,96.712C174.477,96.014 174.907,95.103 174.907,93.981Z" style="fill-rule:nonzero;"/>
                <path d="M210.073,96.375C211.844,96.375 213.215,95.895 214.188,94.935C215.161,93.975 215.635,92.634 215.61,90.913L227.431,90.913C227.431,95.353 225.842,98.994 222.662,101.837C219.482,104.681 215.385,106.102 210.372,106.102C204.486,106.102 199.847,104.257 196.455,100.565C193.064,96.874 191.368,91.761 191.368,85.227L191.368,84.703C191.368,80.613 192.122,77.003 193.631,73.873C195.14,70.743 197.316,68.336 200.159,66.653C203.002,64.969 206.369,64.127 210.26,64.127C215.522,64.127 219.7,65.586 222.793,68.504C225.885,71.422 227.431,75.375 227.431,80.364L215.61,80.364C215.61,78.269 215.098,76.66 214.076,75.538C213.053,74.415 211.682,73.854 209.961,73.854C206.694,73.854 204.786,75.937 204.237,80.102C204.062,81.424 203.975,83.244 203.975,85.564C203.975,89.629 204.461,92.447 205.434,94.018C206.407,95.59 207.953,96.375 210.073,96.375Z" style="fill-rule:nonzero;"/>
                <path d="M245.089,69.215C247.783,65.823 251.225,64.127 255.415,64.127C259.879,64.127 263.246,65.449 265.516,68.093C267.785,70.737 268.945,74.64 268.995,79.802L268.995,105.354L256.35,105.354L256.35,80.102C256.35,77.957 255.914,76.379 255.041,75.369C254.168,74.359 252.684,73.854 250.589,73.854C247.995,73.854 246.162,74.677 245.089,76.323L245.089,105.354L232.482,105.354L232.482,47.891L245.089,47.891L245.089,69.215Z" style="fill-rule:nonzero;"/>
                <path d="M300.12,100.977C297.452,104.394 293.848,106.102 289.309,106.102C284.869,106.102 281.509,104.811 279.227,102.23C276.945,99.649 275.804,95.939 275.804,91.1L275.804,64.876L288.411,64.876L288.411,91.175C288.411,94.642 290.094,96.375 293.461,96.375C296.354,96.375 298.412,95.34 299.634,93.27L299.634,64.876L312.316,64.876L312.316,105.354L300.495,105.354L300.12,100.977Z" style="fill-rule:nonzero;"/>
                <path d="M333.902,54.812L333.902,64.876L340.561,64.876L340.561,73.63L333.902,73.63L333.902,92.148C333.902,93.669 334.177,94.729 334.725,95.328C335.274,95.926 336.359,96.226 337.98,96.226C339.227,96.226 340.275,96.151 341.123,96.001L341.123,105.017C338.853,105.741 336.484,106.102 334.015,106.102C329.675,106.102 326.47,105.08 324.4,103.034C322.33,100.989 321.295,97.884 321.295,93.719L321.295,73.63L316.132,73.63L316.132,64.876L321.295,64.876L321.295,54.812L333.902,54.812Z" style="fill-rule:nonzero;"/>
                <path d="M360.202,54.812L360.202,64.876L366.861,64.876L366.861,73.63L360.202,73.63L360.202,92.148C360.202,93.669 360.476,94.729 361.025,95.328C361.574,95.926 362.659,96.226 364.28,96.226C365.527,96.226 366.574,96.151 367.422,96.001L367.422,105.017C365.153,105.741 362.783,106.102 360.314,106.102C355.975,106.102 352.77,105.08 350.7,103.034C348.63,100.989 347.595,97.884 347.595,93.719L347.595,73.63L342.432,73.63L342.432,64.876L347.595,64.876L347.595,54.812L360.202,54.812Z" style="fill-rule:nonzero;"/>
                <path d="M385.118,105.354L372.473,105.354L372.473,64.876L385.118,64.876L385.118,105.354ZM371.725,54.438C371.725,52.642 372.373,51.171 373.67,50.024C374.967,48.876 376.65,48.303 378.72,48.303C380.79,48.303 382.474,48.876 383.771,50.024C385.068,51.171 385.716,52.642 385.716,54.438C385.716,56.234 385.068,57.705 383.771,58.852C382.474,60 380.79,60.573 378.72,60.573C376.65,60.573 374.967,60 373.67,58.852C372.373,57.705 371.725,56.234 371.725,54.438Z" style="fill-rule:nonzero;"/>
                <path d="M414.073,93.981C414.073,92.909 413.512,92.048 412.39,91.4C411.268,90.751 409.135,90.078 405.993,89.38C402.85,88.681 400.256,87.765 398.211,86.63C396.166,85.495 394.607,84.117 393.535,82.496C392.463,80.875 391.926,79.017 391.926,76.922C391.926,73.206 393.46,70.144 396.528,67.737C399.596,65.331 403.611,64.127 408.574,64.127C413.911,64.127 418.201,65.337 421.443,67.756C424.686,70.175 426.307,73.355 426.307,77.296L413.662,77.296C413.662,74.054 411.954,72.433 408.537,72.433C407.215,72.433 406.105,72.8 405.207,73.536C404.309,74.272 403.86,75.188 403.86,76.286C403.86,77.408 404.409,78.318 405.506,79.017C406.604,79.715 408.356,80.289 410.763,80.738C413.169,81.187 415.283,81.723 417.104,82.346C423.189,84.441 426.232,88.195 426.232,93.607C426.232,97.298 424.592,100.303 421.312,102.623C418.033,104.942 413.787,106.102 408.574,106.102C405.107,106.102 402.015,105.479 399.296,104.232C396.578,102.985 394.458,101.289 392.936,99.144C391.415,96.999 390.654,94.742 390.654,92.372L402.439,92.372C402.489,94.243 403.112,95.608 404.309,96.469C405.506,97.329 407.04,97.76 408.911,97.76C410.632,97.76 411.922,97.41 412.783,96.712C413.643,96.014 414.073,95.103 414.073,93.981Z" style="fill-rule:nonzero;"/>
                <path d="M444.451,69.215C447.145,65.823 450.586,64.127 454.776,64.127C459.241,64.127 462.608,65.449 464.877,68.093C467.147,70.737 468.307,74.64 468.356,79.802L468.356,105.354L455.712,105.354L455.712,80.102C455.712,77.957 455.275,76.379 454.402,75.369C453.529,74.359 452.045,73.854 449.95,73.854C447.357,73.854 445.523,74.677 444.451,76.323L444.451,105.354L431.844,105.354L431.844,47.891L444.451,47.891L444.451,69.215Z" style="fill-rule:nonzero;"/>
                <g transform="matrix(1,0,0,1,28.2537,-3.26997)">
                    <path d="M555.972,85.414C555.972,91.699 554.557,96.718 551.726,100.472C548.895,104.225 545.073,106.102 540.26,106.102C536.544,106.102 533.488,104.743 531.094,102.024L531.094,120.917L518.487,120.917L518.487,64.876L530.271,64.876L530.645,68.617C533.064,65.624 536.244,64.127 540.185,64.127C545.173,64.127 549.051,65.967 551.82,69.645C554.588,73.324 555.972,78.381 555.972,84.815L555.972,85.414ZM543.365,84.628C543.365,77.446 541.27,73.854 537.08,73.854C534.087,73.854 532.092,74.927 531.094,77.071L531.094,93.008C532.192,95.253 534.212,96.375 537.155,96.375C541.17,96.375 543.24,92.909 543.365,85.975L543.365,84.628Z" style="fill-rule:nonzero;"/>
                </g>
            </g>
        </g>
    </g>
</svg>
